<?xml version="1.0" encoding="UTF-8"?>
<svg version="1.1" xmlns="http://www.w3.org/2000/svg" width="1080" height="1080">
<path d="M0 0 C356.4 0 712.8 0 1080 0 C1080 356.4 1080 712.8 1080 1080 C723.6 1080 367.2 1080 0 1080 C0 723.6 0 367.2 0 0 Z " fill="#FEFEFE" transform="translate(0,0)"/>
<path d="M0 0 C1.93936588 0.68708401 3.88857406 1.33785032 5.84082031 1.98730469 C40.61815495 13.9147665 70.09338876 39.75700469 86.23095703 72.70751953 C92.96824507 87.02382362 96.13893834 102.14361735 98.78222656 117.64746094 C104.19588128 148.91561948 114.5607757 183.64121676 137.30957031 206.86230469 C138.92675781 208.68261719 138.92675781 208.68261719 138.92675781 210.68261719 C139.51972656 210.94945312 140.11269531 211.21628906 140.72363281 211.49121094 C142.96494406 212.70326755 144.37253967 213.96197636 146.17675781 215.74511719 C156.01964989 224.5085843 168.46402821 229.84577684 180.92675781 233.68261719 C181.67320557 233.92488037 182.41965332 234.16714355 183.1887207 234.41674805 C189.28349015 236.34371348 195.30171158 237.53814621 201.61425781 238.49511719 C210.79473484 239.96975461 219.95705814 241.5287326 229.09561157 243.24398804 C231.05487664 243.60905285 233.01655243 243.96110473 234.97827148 244.31274414 C247.94965779 246.77328704 259.16494175 250.97084884 269.92675781 258.68261719 C270.57257812 259.1428125 271.21839844 259.60300781 271.88378906 260.07714844 C291.17713483 275.18954343 297.62304577 303.99401011 300.55566406 327.07324219 C304.69778961 369.91016085 295.13221997 412.5104224 267.61279297 446.09399414 C235.84280968 483.74903298 188.78399227 501.75323213 140.64108276 506.46376038 C136.23794343 506.81878678 131.84255146 506.90401987 127.42675781 506.95605469 C126.44495041 506.96853745 125.46314301 506.9810202 124.45158386 506.99388123 C100.81117615 507.23585857 78.11761106 506.43267206 54.92675781 501.68261719 C53.95689941 501.48506836 52.98704102 501.28751953 51.98779297 501.08398438 C46.22302507 499.86157067 40.57729247 498.34932947 34.92675781 496.68261719 C33.94900391 496.40047363 32.97125 496.11833008 31.96386719 495.82763672 C18.96641134 492.05501931 6.18520046 487.90383139 -6.3671875 482.828125 C-20.23008247 477.36789286 -33.78536104 474.93695329 -48.63574219 475.12011719 C-49.75168259 475.12600861 -49.75168259 475.12600861 -50.89016724 475.13201904 C-67.27743234 475.25214534 -83.01634038 477.51695624 -99.07324219 480.68261719 C-100.99595947 481.05942627 -100.99595947 481.05942627 -102.95751953 481.44384766 C-114.62393959 483.76765279 -126.22772341 486.2205699 -137.61230469 489.69042969 C-142.16774902 490.99639228 -146.76989721 492.05097281 -151.38574219 493.12011719 C-157.69853454 494.58952225 -163.93782307 496.16067362 -170.13574219 498.05761719 C-178.99967438 500.76803975 -187.9879824 502.9473134 -196.98632812 505.16210938 C-202.82440342 506.60386289 -208.62674294 508.07711498 -214.38574219 509.80761719 C-223.27457265 512.42925959 -232.36660036 514.23235285 -241.43212891 516.12744141 C-243.65000751 516.59365105 -245.86406021 517.07324896 -248.07714844 517.56152344 C-251.7325358 518.34161169 -255.39332321 519.02799843 -259.07324219 519.68261719 C-259.78528809 519.81941895 -260.49733398 519.9562207 -261.23095703 520.09716797 C-275.57552788 522.77188614 -289.90115423 523.02757249 -304.44824219 523.12011719 C-305.38864349 523.13215179 -306.3290448 523.1441864 -307.29794312 523.15658569 C-333.17846168 523.43992743 -357.50772344 517.27787166 -376.80371094 498.94824219 C-377.55265625 498.20058594 -378.30160156 497.45292969 -379.07324219 496.68261719 C-379.770625 495.99683594 -380.46800781 495.31105469 -381.18652344 494.60449219 C-401.00925397 473.81949319 -407.90334608 442.20607296 -410.64355469 414.58105469 C-410.9596711 410.95663634 -410.9596711 410.95663634 -411.58520508 408.56201172 C-412.30984281 404.28668533 -412.27632405 400.04339208 -412.31152344 395.71386719 C-412.32131729 394.73360062 -412.33111115 393.75333405 -412.34120178 392.74336243 C-412.57296138 363.47545683 -411.70133626 335.64466818 -402.07324219 307.68261719 C-401.84411133 307.01166016 -401.61498047 306.34070313 -401.37890625 305.64941406 C-393.68323924 283.69051516 -381.17636953 264.38400313 -365.07324219 247.68261719 C-364.27128418 246.8419873 -364.27128418 246.8419873 -363.453125 245.984375 C-354.88812629 237.04309957 -346.04021244 229.01994922 -336.07324219 221.68261719 C-335.3995459 221.18052734 -334.72584961 220.6784375 -334.03173828 220.16113281 C-320.41522553 210.03052209 -306.22889623 200.87202145 -291.91699219 191.76464844 C-250.20540889 165.2029216 -210.43273473 137.68913908 -188.23730469 92.10058594 C-177.83761626 70.74845047 -166.30064289 52.15599747 -150.07324219 34.68261719 C-149.24759766 33.77576172 -149.24759766 33.77576172 -148.40527344 32.85058594 C-131.05899667 14.56204229 -107.59298522 2.9588835 -83.63574219 -3.75488281 C-82.76095215 -4.00206055 -81.88616211 -4.24923828 -80.98486328 -4.50390625 C-55.3186561 -11.27418329 -24.89575015 -8.85434848 0 0 Z " fill="#3BB27C" transform="translate(597.0732421875,205.3173828125)"/>
<path d="M0 0 C2.66148909 1.27242652 5.07233827 2.65600662 7.4765625 4.36328125 C8.137771 4.83113037 8.79897949 5.29897949 9.48022461 5.78100586 C10.18800049 6.28639893 10.89577637 6.79179199 11.625 7.3125 C12.37209229 7.84302979 13.11918457 8.37355957 13.88891602 8.92016602 C21.53356244 14.35853767 29.1367904 19.85438418 36.73388672 25.35888672 C40.486448 28.07648173 44.24343419 30.78794473 48 33.5 C49.50002146 34.58330362 51.00002146 35.66663696 52.5 36.75 C53.61375 37.554375 53.61375 37.554375 54.75 38.375 C79.5 56.25 79.5 56.25 81.75268555 57.87695312 C83.24371654 58.95379984 84.73476455 60.03062299 86.22583008 61.10742188 C90.11320014 63.9148015 94.00022085 66.72266307 97.88671875 69.53125 C98.69044922 70.11197266 99.49417969 70.69269531 100.32226562 71.29101562 C101.84841806 72.39372692 103.37446735 73.49658099 104.90039062 74.59960938 C105.59712891 75.10298828 106.29386719 75.60636719 107.01171875 76.125 C107.67606934 76.6096875 108.34041992 77.094375 109.02490234 77.59375 C110.35371341 78.53985034 111.70400946 79.45640377 113.07275391 80.34375 C115.01953125 81.625 115.01953125 81.625 118 84 C118 85.32 118 86.64 118 88 C115.77335683 88.985267 113.54398683 89.96331444 111.3125 90.9375 C110.68666016 91.21529297 110.06082031 91.49308594 109.41601562 91.77929688 C100.59199982 95.61381683 100.59199982 95.61381683 96.78125 94.14453125 C96.0284375 93.70496094 95.275625 93.26539063 94.5 92.8125 C77.09137859 83.47065383 55.77805877 82.35978693 37 88 C16.8585813 94.83056808 2.15989952 108.08740792 -7.75 126.75 C-16.79773288 145.85997127 -17.80331411 166.01248568 -11 186 C-9.57531064 189.82701039 -7.94104013 193.40852744 -6 197 C-5.31550781 198.28197266 -5.31550781 198.28197266 -4.6171875 199.58984375 C0.1899474 207.81511728 6.70105262 214.38010293 13.27050781 221.19384766 C15.76493052 223.79883625 18.19761863 226.45768491 20.625 229.125 C24.38596814 233.23838683 28.1557814 237.34318212 31.9375 241.4375 C32.43652832 241.97777832 32.93555664 242.51805664 33.44970703 243.07470703 C34.46104672 244.16948306 35.47244008 245.2642095 36.48388672 246.35888672 C37.99094817 247.99020187 39.4975303 249.62195809 41.00390625 251.25390625 C41.7470105 252.05876465 41.7470105 252.05876465 42.50512695 252.87988281 C43.4951712 253.9528754 44.4846004 255.02643583 45.47338867 256.10058594 C48.10775325 258.96052966 50.75533695 261.80672342 53.421875 264.63671875 C53.97875 265.23097656 54.535625 265.82523438 55.109375 266.4375 C56.18347857 267.58321048 57.26146785 268.72529341 58.34375 269.86328125 C62 273.7750756 62 273.7750756 62 276 C42.61514693 276.0467867 23.23030537 276.08202149 3.84540749 276.10362434 C-5.15597805 276.11392295 -14.15732844 276.12795615 -23.15869141 276.15087891 C-31.00718511 276.1708562 -38.85565335 276.18372672 -46.70417178 276.18817699 C-50.85725027 276.19077703 -55.01025593 276.19685861 -59.163311 276.21146011 C-63.07846981 276.22511269 -66.99352631 276.22920724 -70.90870667 276.22621536 C-72.33968793 276.22676211 -73.77067289 276.23069361 -75.20163345 276.23841095 C-90.40554671 276.31633223 -101.70825748 274.47392439 -113.1484375 263.9453125 C-121.42731515 255.24725117 -124.98611986 244.702711 -125.24810791 232.83631897 C-125.27694061 231.59596893 -125.30577332 230.3556189 -125.33547974 229.0776825 C-125.36224055 227.71072857 -125.38875196 226.34376975 -125.41503906 224.97680664 C-125.44587894 223.53081986 -125.47685785 222.08483604 -125.50796509 220.63885498 C-125.78186242 207.43829528 -125.94022054 194.23586043 -126.06656265 181.03315067 C-126.15340209 172.16732433 -126.27600591 163.30495133 -126.48828125 154.44116211 C-126.67378303 146.6939628 -126.79130116 138.94918162 -126.82835174 131.19979757 C-126.85014332 127.10419363 -126.90411782 123.01514399 -127.03943634 118.92158699 C-127.82388819 94.18369224 -127.82388819 94.18369224 -123.18086243 87.30488205 C-118.85878213 82.88068884 -113.96876302 79.94826975 -108.44097137 77.25687981 C-104.48699438 75.22093875 -101.00610524 72.57344391 -97.4375 69.9375 C-96.04145884 68.95232464 -94.64329555 67.97014335 -93.2421875 66.9921875 C-86.53550123 62.27543132 -79.90557356 57.4517573 -73.26611328 52.64111328 C-69.513552 49.92351827 -65.75656581 47.21205527 -62 44.5 C-60.49997854 43.41669638 -58.99997854 42.33336304 -57.5 41.25 C-54.5 39.08333333 -51.5 36.91666667 -48.5 34.75 C-47.75741943 34.21366943 -47.01483887 33.67733887 -46.24975586 33.12475586 C-44.7506555 32.04211746 -43.25146938 30.9595978 -41.75219727 29.87719727 C-37.98771832 27.15920177 -34.22478096 24.43911932 -30.46484375 21.71484375 C-20.36319569 14.39989469 -10.20533559 7.1695712 0 0 Z " fill="#CCF3F4" transform="translate(521,355)"/>
<path d="M0 0 C0.91652344 -0.01224609 1.83304688 -0.02449219 2.77734375 -0.03710938 C18.27489397 -0.07027104 29.88916037 6.37471718 40.75 17.1875 C43.76606147 15.83751615 45.78493339 14.31359526 48.125 12 C57.60830891 3.46502199 68.49534563 0.00864776 81 0 C81.91652344 -0.01224609 82.83304688 -0.02449219 83.77734375 -0.03710938 C97.74124043 -0.06698933 109.381275 5.10205361 119.4921875 14.7578125 C130.2982025 26.38643072 134.30184949 38.67111401 134.06640625 54.3359375 C132.48645755 73.56839944 119.95017597 87.45137342 106.67358398 100.26489258 C104.84693394 102.09061527 103.15476478 103.97102341 101.47265625 105.9296875 C97.91297905 110.02848105 94.22909944 113.99310024 90.5 117.9375 C85.09889148 123.6743045 79.73969752 129.4439645 74.42578125 135.26171875 C71.04621541 138.95703964 67.6491258 142.63595046 64.24731445 146.31079102 C61.71282125 149.05108523 59.18992919 151.80068019 56.6875 154.5703125 C56.19378906 155.11494141 55.70007813 155.65957031 55.19140625 156.22070312 C53.83341793 157.72037857 52.47908759 159.22336407 51.125 160.7265625 C48.01660888 163.94742829 45.94749204 165.90573717 41.5625 166.9375 C34.94306741 165.63531654 31.44284251 160.28849978 27.16503906 155.36230469 C23.04071102 150.62337089 18.81574369 146.00241404 14.5 141.4375 C9.09763096 135.69935663 3.73740086 129.92814591 -1.578125 124.109375 C-4.43877668 120.98106 -7.3111165 117.8638405 -10.1875 114.75 C-10.68588379 114.21036621 -11.18426758 113.67073242 -11.69775391 113.11474609 C-13.2149951 111.47216972 -14.73245786 109.82979834 -16.25 108.1875 C-17.26304751 107.09117048 -18.27606838 105.99481635 -19.2890625 104.8984375 C-19.78913818 104.35735352 -20.28921387 103.81626953 -20.80444336 103.25878906 C-21.80642055 102.17327322 -22.80724342 101.08669071 -23.80688477 99.99902344 C-26.26198031 97.32895075 -28.73115529 94.67603519 -31.23828125 92.0546875 C-43.97106072 78.65142566 -50.65772245 65.23657725 -50.46484375 46.52734375 C-49.51405579 31.74691269 -42.03541422 20.13786495 -31.27734375 10.40234375 C-21.74736499 2.7509645 -11.93114907 0.00825114 0 0 Z " fill="#FCB54C" transform="translate(580.25,464.8125)"/>
<path d="M0 0 C0.91652344 -0.01224609 1.83304688 -0.02449219 2.77734375 -0.03710938 C18.27489397 -0.07027104 29.88916037 6.37471718 40.75 17.1875 C43.76606147 15.83751615 45.78493339 14.31359526 48.125 12 C57.60830891 3.46502199 68.49534563 0.00864776 81 0 C81.91652344 -0.01224609 82.83304688 -0.02449219 83.77734375 -0.03710938 C97.74124043 -0.06698933 109.381275 5.10205361 119.4921875 14.7578125 C130.2982025 26.38643072 134.30184949 38.67111401 134.06640625 54.3359375 C132.48645755 73.56839944 119.95017597 87.45137342 106.67358398 100.26489258 C104.84693394 102.09061527 103.15476478 103.97102341 101.47265625 105.9296875 C97.91297905 110.02848105 94.22909944 113.99310024 90.5 117.9375 C85.09889148 123.6743045 79.73969752 129.4439645 74.42578125 135.26171875 C71.04621541 138.95703964 67.6491258 142.63595046 64.24731445 146.31079102 C61.71282125 149.05108523 59.18992919 151.80068019 56.6875 154.5703125 C56.19378906 155.11494141 55.70007813 155.65957031 55.19140625 156.22070312 C53.83341793 157.72037857 52.47908759 159.22336407 51.125 160.7265625 C48.01660888 163.94742829 45.94749204 165.90573717 41.5625 166.9375 C34.94306741 165.63531654 31.44284251 160.28849978 27.16503906 155.36230469 C23.04071102 150.62337089 18.81574369 146.00241404 14.5 141.4375 C9.09763096 135.69935663 3.73740086 129.92814591 -1.578125 124.109375 C-4.43877668 120.98106 -7.3111165 117.8638405 -10.1875 114.75 C-10.68588379 114.21036621 -11.18426758 113.67073242 -11.69775391 113.11474609 C-13.2149951 111.47216972 -14.73245786 109.82979834 -16.25 108.1875 C-17.26304751 107.09117048 -18.27606838 105.99481635 -19.2890625 104.8984375 C-19.78913818 104.35735352 -20.28921387 103.81626953 -20.80444336 103.25878906 C-21.80642055 102.17327322 -22.80724342 101.08669071 -23.80688477 99.99902344 C-26.26198031 97.32895075 -28.73115529 94.67603519 -31.23828125 92.0546875 C-43.97106072 78.65142566 -50.65772245 65.23657725 -50.46484375 46.52734375 C-49.51405579 31.74691269 -42.03541422 20.13786495 -31.27734375 10.40234375 C-21.74736499 2.7509645 -11.93114907 0.00825114 0 0 Z M-25.0078125 27.0390625 C-26.5791505 29.02100138 -27.93438772 31.02813637 -29.25 33.1875 C-29.66378906 33.84234375 -30.07757812 34.4971875 -30.50390625 35.171875 C-34.66451439 42.8842218 -34.30254777 51.79232135 -32.66015625 60.2109375 C-29.60305432 70.04438057 -22.30988451 77.40718898 -15.03295898 84.40625 C-13.26075541 86.1767549 -11.62488103 88.01081679 -9.9921875 89.91015625 C-6.42529913 94.01475939 -2.73539231 97.98650063 1 101.9375 C6.35370297 107.62321556 11.6611152 113.34497002 16.92578125 119.11328125 C20.25423877 122.74901793 23.62978093 126.34052886 27 129.9375 C31.68204661 134.93732686 36.31316631 139.96671449 40.75 145.1875 C43.72325963 143.8612226 45.69079346 142.45716888 47.88671875 140.0625 C48.4590625 139.44375 49.03140625 138.825 49.62109375 138.1875 C50.52021484 137.1975 50.52021484 137.1975 51.4375 136.1875 C52.37722656 135.1665625 52.37722656 135.1665625 53.3359375 134.125 C57.37353732 129.72942741 61.36746338 125.29481711 65.34375 120.84375 C69.04691589 116.7558396 72.8270894 112.74050181 76.59765625 108.71484375 C80.56646045 104.47173775 84.47311643 100.18026662 88.33984375 95.84375 C90.84510157 93.0826879 93.39609758 90.36984943 95.95556641 87.65917969 C112.94239421 69.78332329 112.94239421 69.78332329 117.32421875 46.04296875 C115.97355134 36.97420185 111.43563678 28.180586 104.0234375 22.5859375 C93.65141059 16.20589346 83.60806315 14.19716976 71.5859375 16.8984375 C62.1016927 20.22668172 54.05273698 27.74633052 47.875 35.55859375 C45.24217932 37.57676695 43.08182443 37.88328774 39.78808594 37.70800781 C35.96004664 36.73036289 33.87835291 33.96580848 31.375 31.0625 C23.89835406 23.00830111 16.12979783 16.78683535 4.74609375 15.97265625 C-6.87294835 15.63606754 -16.78986025 18.38281947 -25.0078125 27.0390625 Z " fill="#CCF3F3" transform="translate(580.25,464.8125)"/>
<path d="M0 0 C5.09281173 3.21212864 9.9395835 6.75084298 14.76757812 10.34423828 C17.72019448 12.53415999 20.70516518 14.67752051 23.69067383 16.82226562 C25.95235043 18.44817592 28.20929201 20.08044934 30.46484375 21.71484375 C34.97312352 24.98133353 39.48614565 28.24121974 44 31.5 C45.50002146 32.58330362 47.00002146 33.66663696 48.5 34.75 C49.61375 35.554375 49.61375 35.554375 50.75 36.375 C53 38 55.25 39.625 57.5 41.25 C58.24241943 41.78616943 58.98483887 42.32233887 59.74975586 42.87475586 C61.2506555 43.95878416 62.75146922 45.04293142 64.25219727 46.12719727 C67.98773967 48.82587655 71.72472254 51.52251312 75.46484375 54.21484375 C84.06999766 60.41307333 92.63236827 66.6649639 101.16015625 72.96923828 C105.88932434 76.46032739 110.64398668 79.91036982 115.4375 83.3125 C132.25222208 95.25222208 132.25222208 95.25222208 136 99 C136.66666667 105.88888889 136.66666667 105.88888889 134.5 109.5 C131.01246152 111.59252309 127.91666716 111.7115711 124 111 C120.91568225 109.47107854 118.32055864 107.44006593 115.625 105.3125 C114.0342328 104.11017596 112.443076 102.90836724 110.8515625 101.70703125 C110.0462207 101.08908691 109.24087891 100.47114258 108.41113281 99.83447266 C104.66111003 96.98132652 100.82998508 94.24427706 97 91.5 C95.49955316 90.41728564 93.99955414 89.33395042 92.5 88.25 C91.7575 87.71375 91.015 87.1775 90.25 86.625 C29.5 42.75 29.5 42.75 27.24731445 41.12304688 C25.75628346 40.04620016 24.26523545 38.96937701 22.77416992 37.89257812 C18.88679986 35.0851985 14.99977915 32.27733693 11.11328125 29.46875 C10.30955078 28.88802734 9.50582031 28.30730469 8.67773438 27.70898438 C7.15158194 26.60627308 5.62553265 25.50341901 4.09960938 24.40039062 C2.72012308 23.40374049 1.33963112 22.40848047 -0.04199219 21.41479492 C-1.33972489 20.47709405 -2.63214977 19.53200006 -3.91894531 18.5793457 C-11.01257477 13.37286433 -18.1626389 10.80624 -27 12 C-34.01575186 14.13092181 -39.70561051 17.53079794 -45.5 21.9375 C-47.07270418 23.10315133 -48.64562708 24.26850761 -50.21875 25.43359375 C-51.01152344 26.02640137 -51.80429687 26.61920898 -52.62109375 27.22998047 C-56.38337623 30.02929779 -60.19272708 32.76237758 -64 35.5 C-65.50024915 36.58298828 -67.00024871 37.66632238 -68.5 38.75 C-89.5 53.91666667 -110.5 69.08333333 -131.5 84.25 C-132.2434668 84.7869751 -132.98693359 85.3239502 -133.75292969 85.87719727 C-135.24306093 86.9533492 -136.73329422 88.02935985 -138.22363281 89.10522461 C-142.12550175 91.92224409 -146.02522103 94.74217655 -149.921875 97.56640625 C-151.13423828 98.44425781 -151.13423828 98.44425781 -152.37109375 99.33984375 C-153.91081772 100.45481628 -155.44992175 101.57064563 -156.98828125 102.6875 C-158.98623616 104.13353367 -160.99158137 105.56855097 -163 107 C-163.84183838 107.61367432 -163.84183838 107.61367432 -164.70068359 108.23974609 C-169.23118323 111.4405036 -171.58163838 111.69914344 -177 111 C-179.5 109.4375 -179.5 109.4375 -181 107 C-181.5625 103.5625 -181.5625 103.5625 -181 100 C-177.3998948 95.89426204 -173.1853719 92.72208769 -168.8125 89.5 C-167.76908447 88.72450806 -167.76908447 88.72450806 -166.70458984 87.93334961 C-159.28103661 82.4330438 -151.78525245 77.0322119 -144.28222656 71.64111328 C-140.5170093 68.93360468 -136.75883948 66.21635203 -133 63.5 C-131.50003434 62.41661912 -130.00003433 61.3332858 -128.5 60.25 C-127.7575 59.71375 -127.015 59.1775 -126.25 58.625 C-112 48.33333333 -97.75 38.04166667 -83.5 27.75 C-82.75693604 27.2132666 -82.01387207 26.6765332 -81.24829102 26.12353516 C-79.75427963 25.04468015 -78.25997804 23.96622692 -76.76538086 22.88818359 C-72.92122767 20.11462308 -69.08298597 17.33340423 -65.25390625 14.5390625 C-45.31906101 0.00989276 -24.63384191 -13.94257878 0 0 Z " fill="#CAF3F3" transform="translate(544,319)"/>
</svg>
