<svg version="1.1" xmlns="http://www.w3.org/2000/svg" width="153" height="153" viewBox="0 0 512 512"><path d="M0 0 C2.453125 2.2421875 2.453125 2.2421875 5 5 C6.16789062 6.24136719 6.16789062 6.24136719 7.359375 7.5078125 C12.26129369 12.87429212 16.96398064 18.34329382 21.53125 23.99609375 C24.40037224 27.48716179 27.34644461 30.90378232 30.3125 34.3125 C30.86365479 34.94607422 31.41480957 35.57964844 31.98266602 36.23242188 C33.10178159 37.51848455 34.22100376 38.80445448 35.34033203 40.09033203 C42.20418251 47.98810173 48.99264776 55.93240777 55.56640625 64.07421875 C57.45608068 66.34607453 59.37439212 68.56453848 61.33984375 70.76953125 C61.92386963 71.42832275 62.50789551 72.08711426 63.10961914 72.76586914 C64.25612288 74.05443724 65.40988547 75.33659645 66.57202148 76.61108398 C70.05892437 80.53854924 72.30713574 84.00545013 74 89 C73.46769254 95.91999695 68.7868982 100.36446732 64.37109375 105.42724609 C62.94471445 107.06341693 61.53349553 108.71169751 60.125 110.36328125 C58.10167573 112.73379335 56.07270786 115.09927446 54.0390625 117.4609375 C51.17403045 120.79165095 48.33327978 124.14226641 45.5 127.5 C41.64959801 132.06313006 37.76956071 136.59952169 33.875 141.125 C30.38180518 145.1862481 26.93551449 149.27518779 23.5625 153.4375 C19.32882696 158.65592849 14.93847791 163.72867197 10.51586914 168.78686523 C8.20016137 171.43940323 5.93153347 174.08731272 3.7578125 176.859375 C1.61575741 179.46792209 0.28274659 180.23657056 -3 181 C-6.87070993 180.86176036 -9.44029025 180.29202248 -12.875 178.5 C-15.49717121 175.41509269 -15.8116831 173.25440962 -16.25 169.31640625 C-15.67006428 163.94293938 -11.47132242 160.00489832 -8.0625 156.0625 C-7.58377441 155.50256348 -7.10504883 154.94262695 -6.61181641 154.36572266 C-5.07838086 152.573815 -3.53974398 150.78648855 -2 149 C0.04266011 146.62585273 2.08417735 144.25072688 4.125 141.875 C4.63160156 141.28589844 5.13820313 140.69679688 5.66015625 140.08984375 C8.63648844 136.62002643 11.55908169 133.11447872 14.4375 129.5625 C19.56596637 123.24550219 24.91495505 117.12329937 30.26831055 110.99707031 C31.88835462 109.128755 33.49930337 107.25307281 35.10823059 105.37518311 C35.9201044 104.42768251 35.9201044 104.42768251 36.74837971 103.4610405 C37.1614144 102.97889713 37.5744491 102.49675377 38 102 C36.75832754 101.99761165 35.51665508 101.99522329 34.23735619 101.99276257 C4.76427554 101.93540594 -24.70872559 101.86267772 -54.18171743 101.77101372 C-57.80913289 101.75974552 -61.43654874 101.74860707 -65.06396484 101.73754883 C-65.78611976 101.73534514 -66.50827467 101.73314146 -67.25231306 101.730871 C-78.94619483 101.69549611 -90.64007652 101.67063307 -102.33399196 101.64965298 C-114.33253544 101.62789244 -126.33100947 101.59483963 -138.32949388 101.55129844 C-145.06907346 101.52716537 -151.8085839 101.50825675 -158.54820633 101.50238609 C-164.88962901 101.49635088 -171.23085473 101.4764074 -177.57220459 101.44572449 C-179.90142831 101.4369192 -182.23067775 101.43322681 -184.55991745 101.43499184 C-187.73724623 101.43663956 -190.91397098 101.41998748 -194.09121704 101.39872742 C-195.01534948 101.40357499 -195.93948192 101.40842257 -196.89161837 101.41341704 C-201.98598581 101.35706716 -205.63078697 100.91948867 -210 98 C-212.46720886 94.06788587 -213.35899294 91.25784385 -212.4375 86.75 C-211.60939522 84.10722116 -211.06399644 83.06399644 -209.0625 81.0625 C-205.89993668 79.43330071 -203.35669183 78.87402837 -199.85145283 78.8613348 C-199.00249795 78.85586036 -198.15354308 78.85038591 -197.2788623 78.84474558 C-196.34599133 78.84376747 -195.41312037 78.84278936 -194.45198059 78.84178162 C-192.96580617 78.83437465 -192.96580617 78.83437465 -191.44960803 78.82681805 C-188.11460045 78.81140445 -184.77961218 78.80307197 -181.44458008 78.79467773 C-179.0599297 78.78510225 -176.67528103 78.77509236 -174.29063416 78.76467896 C-168.47772125 78.74040403 -162.66480559 78.72067458 -156.85186938 78.70292621 C-150.08889779 78.68203362 -143.32595151 78.65557143 -136.56300124 78.62875474 C-124.50205572 78.5810784 -112.44109855 78.53781433 -100.38012695 78.49731445 C-88.66299534 78.45795974 -76.94587408 78.41653358 -65.22875977 78.37231445 C-64.14566263 78.36822804 -64.14566263 78.36822804 -63.04068474 78.36405908 C-59.41835127 78.35037961 -55.79601795 78.33665933 -52.17368472 78.32291877 C-22.11581133 78.20895333 7.94208423 78.10221746 38 78 C36.99223511 76.90026855 36.99223511 76.90026855 35.96411133 75.77832031 C35.0748999 74.80475586 34.18568848 73.83119141 33.26953125 72.828125 C32.39143799 71.8680957 31.51334473 70.90806641 30.60864258 69.91894531 C27.44362629 66.37744464 24.46283969 62.71059784 21.48046875 59.015625 C18.55031511 55.45329648 15.53234033 51.97532039 12.5 48.5 C8.01030039 43.35077099 3.60932681 38.15127242 -0.66015625 32.81640625 C-2.45532932 30.65560527 -4.27915069 28.58819306 -6.18359375 26.52734375 C-6.73265381 25.92156494 -7.28171387 25.31578613 -7.84741211 24.69165039 C-8.91691372 23.51597281 -10.00159696 22.35385534 -11.10375977 21.20874023 C-15.02541088 16.85527697 -16.24732986 12.87873063 -16 7 C-14.73475573 3.76659798 -13.42851209 2.36729608 -10.8125 0.125 C-7.08681266 -1.36527494 -3.71205087 -1.46232307 0 0 Z " fill="#FDB853" transform="translate(379,166)" /><path d="M0 0 C3 1.9375 3 1.9375 5 5 C6.0112034 10.04772843 5.8370705 13.7182358 3 18.0625 C-1.01096538 20.65291514 -3.21157511 21 -8 21 C-11.66584612 19.4521983 -14.17308143 17.55768353 -16 14 C-16.83931263 7.4953271 -16.83931263 7.4953271 -14.98046875 4.18359375 C-10.68682289 -1.19967824 -6.44434902 -1.7678078 0 0 Z " fill="#FDB853" transform="translate(136,246)" /><path d="M0 0 C2.875 1.5 2.875 1.5 5 4 C6.28554109 8.24545978 6.49789294 11.72760692 4.875 15.875 C2.64735225 18.39966745 1.14683047 19.74126781 -2 21 C-6.78842489 21 -8.98903462 20.65291514 -13 18.0625 C-15.82314376 13.73956111 -16.04817544 10.02629009 -15 5 C-10.60407717 -0.82162753 -6.95827892 -1.55961424 0 0 Z " fill="#FDB853" transform="translate(89,246)" /></svg>