<?xml version="1.0" encoding="UTF-8"?>
<svg version="1.1" xmlns="http://www.w3.org/2000/svg" fill="none" width="360" height="355" viewBox="0 0 360 355">
<path d="M0 0 C1.04542969 0.76054688 2.09085938 1.52109375 3.16796875 2.3046875 C36.90068449 27.30331027 61.24519034 64.15065291 68 106 C68.20238281 107.1240625 68.40476562 108.248125 68.61328125 109.40625 C72.1767208 131.70804853 70.72274478 155.46067956 64 177 C63.78859375 177.70479492 63.5771875 178.40958984 63.359375 179.13574219 C59.97457544 190.37740934 55.61378562 200.69635846 50 211 C49.43410156 212.05832031 48.86820312 213.11664063 48.28515625 214.20703125 C37.85367398 232.93461001 22.29651437 250.3548311 5.19140625 263.1484375 C2.85423594 264.96773134 2.85423594 264.96773134 1.07421875 267.70703125 C-1 270 -1 270 -3.796875 270.48828125 C-4.77140625 270.43027344 -5.7459375 270.37226563 -6.75 270.3125 C-8.22726562 270.24482422 -8.22726562 270.24482422 -9.734375 270.17578125 C-10.48203125 270.11777344 -11.2296875 270.05976563 -12 270 C-7.5027526 260.32114146 0.12314144 253.72811461 8.1940918 247.03198242 C32.52591648 226.80706511 48.03538118 198.34581513 56 168 C56.3196875 166.81921875 56.639375 165.6384375 56.96875 164.421875 C59.20932141 154.33930365 59.31519397 144.22218597 59.375 133.9375 C59.38294586 133.22128479 59.39089172 132.50506958 59.39907837 131.76715088 C59.48938705 121.15443855 58.29390347 111.3700399 56 101 C55.77567291 99.96672073 55.77567291 99.96672073 55.54681396 98.91256714 C47.27238673 60.90762167 23.38029031 27.15174236 -9.31298828 6.0703125 C-22.00496524 -1.98202136 -35.29016512 -8.61048547 -50 -12 C-48.98421875 -11.26136719 -47.9684375 -10.52273437 -46.921875 -9.76171875 C-14.95083001 13.6948952 6.67603489 44.26157058 13 84 C17.68550652 118.14412699 10.22755196 154.84438293 -10.40527344 182.91162109 C-13.4359275 186.76458573 -16.69563073 190.38166418 -20 194 C-21.10523304 195.35329646 -22.20953738 196.70735246 -23.3125 198.0625 C-44.77408964 222.28343688 -76.25791898 236.36069498 -108 240 C-112.73343864 240.28071245 -117.44652599 240.33471191 -122.1875 240.3125 C-124.09269409 240.30404053 -124.09269409 240.30404053 -126.03637695 240.29541016 C-148.95215023 240.00100157 -168.94794859 233.95168301 -189 223 C-189.89976562 222.51917969 -190.79953125 222.03835938 -191.7265625 221.54296875 C-209.08537378 211.73269593 -223.66376148 197.25739632 -235 181 C-235 184.07751655 -234.53933868 185.41812188 -233.3125 188.17578125 C-232.94785645 188.99675293 -232.58321289 189.81772461 -232.20751953 190.66357422 C-231.80903809 191.53771973 -231.41055664 192.41186523 -231 193.3125 C-230.58991699 194.21242676 -230.17983398 195.11235352 -229.75732422 196.03955078 C-219.4269134 218.39486281 -204.85191341 237.0237342 -185.87109375 252.765625 C-180.52352515 257.24460614 -175.96014785 262.23882747 -172 268 C-172 268.66 -172 269.32 -172 270 C-175.80310639 270.56627136 -179.21053927 270.72971023 -183 270 C-185.43798297 268.05578574 -187.09949129 265.95179923 -188.99609375 263.48046875 C-191.02784617 260.96553154 -193.04506282 259.24640413 -195.625 257.3125 C-213.01056275 243.79335842 -226.00903843 226.49292707 -236 207 C-236.55300781 205.92363281 -237.10601562 204.84726562 -237.67578125 203.73828125 C-248.07828918 182.31502848 -253.39988403 159.06288301 -253.26074219 135.29638672 C-253.25004206 133.13350183 -253.26070039 130.97145342 -253.2734375 128.80859375 C-253.28708612 116.21609427 -252.4764254 103.4635716 -248.9375 91.3125 C-248.62268677 90.2153064 -248.62268677 90.2153064 -248.30151367 89.09594727 C-240.12601928 61.96881849 -225.37570102 39.34448607 -206 19 C-205.33484375 18.28199219 -204.6696875 17.56398437 -203.984375 16.82421875 C-152.71393795 -36.92357135 -59.29482066 -43.48821759 0 0 Z " fill="#75BE93" transform="translate(275,60)"/>
<path d="M0 0 C1.04542969 0.76054688 2.09085938 1.52109375 3.16796875 2.3046875 C36.90068449 27.30331027 61.24519034 64.15065291 68 106 C68.20238281 107.1240625 68.40476562 108.248125 68.61328125 109.40625 C72.1767208 131.70804853 70.72274478 155.46067956 64 177 C63.78859375 177.70479492 63.5771875 178.40958984 63.359375 179.13574219 C59.97457544 190.37740934 55.61378562 200.69635846 50 211 C49.43410156 212.05832031 48.86820312 213.11664063 48.28515625 214.20703125 C37.85367398 232.93461001 22.29651437 250.3548311 5.19140625 263.1484375 C2.85423594 264.96773134 2.85423594 264.96773134 1.07421875 267.70703125 C-1 270 -1 270 -3.796875 270.48828125 C-4.77140625 270.43027344 -5.7459375 270.37226563 -6.75 270.3125 C-8.22726562 270.24482422 -8.22726562 270.24482422 -9.734375 270.17578125 C-10.48203125 270.11777344 -11.2296875 270.05976563 -12 270 C-7.5027526 260.32114146 0.12314144 253.72811461 8.1940918 247.03198242 C32.52591648 226.80706511 48.03538118 198.34581513 56 168 C56.3196875 166.81921875 56.639375 165.6384375 56.96875 164.421875 C59.20932141 154.33930365 59.31519397 144.22218597 59.375 133.9375 C59.38294586 133.22128479 59.39089172 132.50506958 59.39907837 131.76715088 C59.48938705 121.15443855 58.29390347 111.3700399 56 101 C55.77567291 99.96672073 55.77567291 99.96672073 55.54681396 98.91256714 C47.27238673 60.90762167 23.38029031 27.15174236 -9.31298828 6.0703125 C-42.4862468 -14.97622373 -83.51114308 -23.83805703 -122.27539062 -15.51123047 C-161.23786469 -6.62797691 -197.10456071 16.27651541 -218.88232422 50.21826172 C-228.72596709 65.9104648 -235.69178928 81.98384608 -240 100 C-240.39512784 101.43769408 -240.79081482 102.87523484 -241.1875 104.3125 C-245.45510578 123.6808647 -244.62058737 146.75596483 -240 166 C-239.83902832 166.71446289 -239.67805664 167.42892578 -239.51220703 168.16503906 C-231.82380926 201.71038267 -212.19071374 230.93724291 -185.87109375 252.765625 C-180.52352515 257.24460614 -175.96014785 262.23882747 -172 268 C-172 268.66 -172 269.32 -172 270 C-175.80310639 270.56627136 -179.21053927 270.72971023 -183 270 C-185.43798297 268.05578574 -187.09949129 265.95179923 -188.99609375 263.48046875 C-191.02784617 260.96553154 -193.04506282 259.24640413 -195.625 257.3125 C-213.01056275 243.79335842 -226.00903843 226.49292707 -236 207 C-236.55300781 205.92363281 -237.10601562 204.84726562 -237.67578125 203.73828125 C-248.07828918 182.31502848 -253.39988403 159.06288301 -253.26074219 135.29638672 C-253.25004206 133.13350183 -253.26070039 130.97145342 -253.2734375 128.80859375 C-253.28708612 116.21609427 -252.4764254 103.4635716 -248.9375 91.3125 C-248.62268677 90.2153064 -248.62268677 90.2153064 -248.30151367 89.09594727 C-240.12601928 61.96881849 -225.37570102 39.34448607 -206 19 C-205.33484375 18.28199219 -204.6696875 17.56398437 -203.984375 16.82421875 C-152.71393795 -36.92357135 -59.29482066 -43.48821759 0 0 Z " fill="#091D31" transform="translate(275,60)"/>
<path d="M0 0 C1.28692749 0.00012085 1.28692749 0.00012085 2.59985352 0.00024414 C13.28752742 0.09295978 24.23277573 0.88039385 34.6875 3.1875 C34.6875 3.5175 34.6875 3.8475 34.6875 4.1875 C33.42812622 4.28454224 33.42812622 4.28454224 32.14331055 4.38354492 C8.04305832 6.24844187 8.04305832 6.24844187 -15.3125 12.1875 C-16.11655273 12.46722656 -16.92060547 12.74695312 -17.74902344 13.03515625 C-34.52201016 19.03060682 -50.31760285 27.10091742 -64.3125 38.1875 C-65.6428125 39.21423828 -65.6428125 39.21423828 -67 40.26171875 C-97.26523663 64.20736762 -120.69335688 101.02081137 -125.64086914 139.75854492 C-126.34892415 146.9478762 -126.61709498 154.1578875 -126.875 161.375 C-126.93977539 163.08913086 -126.93977539 163.08913086 -127.00585938 164.83789062 C-127.11066296 167.62100811 -127.21283299 170.40419465 -127.3125 173.1875 C-127.6425 173.1875 -127.9725 173.1875 -128.3125 173.1875 C-128.79753256 171.04298495 -129.27520405 168.89680465 -129.75 166.75 C-130.01683594 165.55503906 -130.28367188 164.36007813 -130.55859375 163.12890625 C-137.59147691 128.19263139 -130.51137019 91.25266922 -110.96875 61.5703125 C-105.44170536 53.45087856 -99.11273044 46.25295004 -92.3125 39.1875 C-91.45978516 38.24003906 -91.45978516 38.24003906 -90.58984375 37.2734375 C-68.29554414 13.21155915 -32.31026808 -0.02884559 0 0 Z " fill="#75BE93" transform="translate(149.3125,27.8125)"/>
</svg>
