<?xml version="1.0" encoding="UTF-8"?>
<svg version="1.1" xmlns="http://www.w3.org/2000/svg" width="521" height="751">
<path d="M0 0 C0 234.3 0 468.6 0 710 C-145.53 710 -291.06 710 -441 710 C-463.62468542 666.25894152 -481.5524236 624.41765937 -481.20581055 574.76196289 C-481.18754019 572.06842496 -481.18530211 569.37523428 -481.18554688 566.68164062 C-481.16858667 558.13170144 -481.01102137 549.60122276 -480.55859375 541.0625 C-480.52114548 540.33599747 -480.4836972 539.60949493 -480.44511414 538.86097717 C-479.15198214 517.0947781 -468.02537281 497.2958787 -453 482 C-452.20207031 481.17757813 -451.40414062 480.35515625 -450.58203125 479.5078125 C-432.81541041 462.25188122 -407.59968163 453.34327613 -385.20767212 443.74023438 C-337.18920962 423.12668457 -297.94905313 399.71218297 -277.15625 349.640625 C-270.65473775 333.29325933 -266.63166356 316.02325636 -264.1875 298.625 C-264.07567383 297.83182373 -263.96384766 297.03864746 -263.84863281 296.22143555 C-262.05630185 281.95866126 -261.9235374 267.49301071 -261.53515625 253.140625 C-261.51575674 252.42381435 -261.49635723 251.70700371 -261.47636986 250.96847153 C-261.29526119 244.2374308 -261.11849845 237.50628201 -260.95043945 230.77490234 C-260.5501632 214.84038537 -260.04681966 198.92285577 -259.07421875 183.01171875 C-259.00187515 181.7650946 -258.92953156 180.51847046 -258.85499573 179.23406982 C-258.14698293 168.46845243 -256.22758845 158.28723334 -253 148 C-252.78359863 147.31019043 -252.56719727 146.62038086 -252.34423828 145.90966797 C-243.9112544 119.97997708 -229.81398905 96.5026808 -212 76 C-211.5270752 75.45263184 -211.05415039 74.90526367 -210.56689453 74.34130859 C-194.49599741 55.88573451 -175.39111521 40.85461704 -154 29 C-153.28408691 28.5982959 -152.56817383 28.1965918 -151.83056641 27.78271484 C-136.60840645 19.29625471 -120.84213461 12.89556881 -104.375 7.25 C-103.60172363 6.98034424 -102.82844727 6.71068848 -102.03173828 6.43286133 C-67.44801045 -5.06316375 -39.81305661 0 0 0 Z " fill="#CDF4F4" transform="translate(521,41)"/>
</svg>
