<?xml version="1.0" encoding="UTF-8"?>
<svg version="1.1" xmlns="http://www.w3.org/2000/svg" width="737" height="837">
<path d="M0 0 C110.88 0 221.76 0 336 0 C335.32999185 8.71010596 334.48370179 16.99877329 332.96875 25.546875 C332.77277222 26.683526 332.57679443 27.820177 332.37487793 28.99127197 C331.75558055 32.57852399 331.12832842 36.16431981 330.5 39.75 C329.87285803 43.3501522 329.24749527 46.95059498 328.62512207 50.55157471 C328.23973145 52.77927511 327.85147345 55.00648208 327.45983887 57.23309326 C325.56790285 68.12648254 324.78798653 78.63848603 324.75976562 89.69873047 C324.75013789 91.96750684 324.71906946 94.23534432 324.6875 96.50390625 C324.40780027 134.95531297 342.83151191 166.97291672 369 194 C370.06154297 195.12148438 370.06154297 195.12148438 371.14453125 196.265625 C375.45464166 200.7249653 380.08822979 204.67112178 384.9296875 208.54296875 C387.04160516 210.23304026 389.12547875 211.93639901 391.1953125 213.67578125 C407.9185645 227.59265204 426.55996522 238.94033024 445.20776367 250.06518555 C463.64984484 261.09645454 481.21876137 273.29452564 495 290 C495.68449219 290.78503906 496.36898438 291.57007813 497.07421875 292.37890625 C525.00699721 325.08901855 538.41267671 368.58838167 540 411 C540.04253906 412.093125 540.08507812 413.18625 540.12890625 414.3125 C541.16870569 470.87758979 519.97423506 523.26699982 481 564 C478.44099843 566.47802051 475.76238676 568.7520846 473 571 C472.00484375 571.82113281 471.0096875 572.64226563 469.984375 573.48828125 C430.32722253 605.73217765 384.73131335 617.54830684 334.91601562 624.18539429 C291.29769835 630.0160638 251.55073763 645.4790219 215 670 C214.24170898 670.50692383 213.48341797 671.01384766 212.70214844 671.53613281 C196.52725201 682.38028128 180.89120485 693.89213755 165.55615234 705.89038086 C158.11992473 711.7058922 150.57875662 717.37208785 143 723 C141.90051025 723.81936035 141.90051025 723.81936035 140.77880859 724.65527344 C109.68767688 747.81344377 77.73018286 770.73252998 41 784 C39.87996582 784.41306396 39.87996582 784.41306396 38.73730469 784.83447266 C10.95520645 795 10.95520645 795 0 795 C0 532.65 0 270.3 0 0 Z " fill="#3BB17C" transform="translate(0,0)"/>
</svg>
