<?xml version="1.0" encoding="UTF-8"?>
<svg version="1.1" xmlns="http://www.w3.org/2000/svg" width="521" height="751">
<path d="M0 0 C83.41432927 0 83.41432927 0 108.8125 8.625 C109.79621582 8.95709473 110.77993164 9.28918945 111.79345703 9.63134766 C134.32537831 17.47801864 156.3044781 28.3503855 175.36621094 42.76757812 C176.97446231 43.98073607 178.60043097 45.17029093 180.2265625 46.359375 C219.85233899 75.63621351 249.22723368 120.30426122 258 169 C258.56098533 173.73028549 258.86814025 178.45532592 259.125 183.2109375 C259.20409161 184.55294265 259.2834446 185.89493242 259.36303711 187.23690796 C260.30832686 203.7533368 260.66119315 220.29315279 261.05212402 236.82989502 C261.43222363 252.83616428 261.86387839 268.82250963 262.921875 284.80078125 C262.99446533 285.93782501 263.06705566 287.07486877 263.1418457 288.24636841 C265.77555702 324.99270132 277.63520975 362.83122076 302 391 C302.67289062 391.80566406 303.34578125 392.61132812 304.0390625 393.44140625 C326.88643986 419.98590468 360.29242289 433.2073381 391.6784668 446.77416992 C437.61439426 466.63977471 437.61439426 466.63977471 455 484 C455.72832031 484.71671875 456.45664062 485.4334375 457.20703125 486.171875 C471.14659715 500.79879622 479.49481848 521.04406647 480.546875 541.08203125 C480.58850769 541.86254349 480.63014038 542.64305573 480.67303467 543.44721985 C481.85643882 567.38359848 482.85657111 592.43565088 478 616 C477.81195801 616.92699707 477.62391602 617.85399414 477.43017578 618.80908203 C470.55055787 651.4667432 456.71787152 680.80966717 441 710 C295.47 710 149.94 710 0 710 C0 475.7 0 241.4 0 0 Z " fill="#CDF4F4" transform="translate(0,41)"/>
</svg>
