<?xml version="1.0" encoding="UTF-8"?>
<svg version="1.1" xmlns="http://www.w3.org/2000/svg" width="737" height="837">
<path d="M0 0 C110.88 0 221.76 0 336 0 C336 262.35 336 524.7 336 795 C317.48351296 791.52815868 317.48351296 791.52815868 309 788.6875 C308.06776611 788.38191162 307.13553223 788.07632324 306.17504883 787.76147461 C303.44411729 786.85741784 300.72065906 785.9344716 298 785 C296.87730713 784.61473145 296.87730713 784.61473145 295.73193359 784.22167969 C291.1006164 782.60919125 286.53342469 780.86992132 282 779 C281.37480469 778.74234863 280.74960937 778.48469727 280.10546875 778.21923828 C259.53929435 769.54353793 240.04777385 757.04067352 222 744 C220.56793751 742.97624184 219.13563566 741.95281845 217.703125 740.9296875 C213.11766489 737.64401533 208.5566033 734.32552771 204 731 C203.22221191 730.4337793 202.44442383 729.86755859 201.64306641 729.28417969 C192.25704971 722.44499616 182.98803922 715.48185818 173.84204102 708.32495117 C153.91761537 692.7558048 133.51992948 678.017419 112.20361328 664.41308594 C110.34275722 663.21979601 108.49512226 662.00993909 106.65234375 660.7890625 C88.57208795 649.1166971 68.18270391 641.20514934 48 634 C47.2359082 633.72430176 46.47181641 633.44860352 45.68457031 633.16455078 C27.89306567 626.89391338 8.59326021 624.96606011 -10.02441406 622.53417969 C-57.68039628 616.29120724 -101.22168505 601.82519823 -138 570 C-138.87398438 569.24847656 -139.74796875 568.49695313 -140.6484375 567.72265625 C-145.88190718 563.12568964 -150.5837091 558.37904232 -155 553 C-155.41443359 552.5138623 -155.82886719 552.02772461 -156.25585938 551.52685547 C-192.66839174 508.81017875 -207.28108968 454.26916835 -203.25 398.875 C-200.94538881 370.28501782 -192.36939824 344.24730884 -179 319 C-178.45730469 317.97261719 -177.91460937 316.94523437 -177.35546875 315.88671875 C-173.98970207 309.83489009 -170.12027651 304.2408051 -166 298.6875 C-165.27055176 297.70040039 -165.27055176 297.70040039 -164.52636719 296.69335938 C-161.47293738 292.66421718 -158.20249605 289.05836007 -154.55834961 285.55395508 C-152.77510855 283.82977063 -152.77510855 283.82977063 -150.5625 281 C-147.34050202 277.2279048 -143.82153343 274.15086697 -140 271 C-139.20078125 270.31679688 -138.4015625 269.63359375 -137.578125 268.9296875 C-127.21692338 260.48616685 -115.58384896 253.93537091 -104.14358521 247.08712769 C-78.52825967 231.74597274 -54.62854831 214.63998585 -33 194 C-32.27554688 193.32839844 -31.55109375 192.65679687 -30.8046875 191.96484375 C-7.42603637 169.67467232 10.19109281 136.61621285 11.28973389 104.08872986 C11.36963676 100.51708744 11.38509698 96.9474288 11.375 93.375 C11.37368576 92.22501022 11.37368576 92.22501022 11.37234497 91.05178833 C11.32038565 77.13585894 9.85016294 63.82831995 7.37738037 50.12768555 C6.10400939 42.94836929 4.93289053 35.75069325 3.73269653 28.55886841 C3.25779611 25.73387593 2.77347713 22.91064267 2.28686523 20.08764648 C1.98807397 18.33317815 1.68932532 16.57870257 1.390625 14.82421875 C1.25018265 14.0222406 1.1097403 13.22026245 0.96504211 12.39398193 C0.83768173 11.63965881 0.71032135 10.88533569 0.57910156 10.1081543 C0.46681213 9.45679001 0.35452271 8.80542572 0.23883057 8.13432312 C-0.06282745 5.43853887 0 2.7126095 0 0 Z " fill="#3BB17C" transform="translate(401,0)"/>
</svg>
